<svg width="30" height="30" xmlns="http://www.w3.org/2000/svg" xmlns:xlink="http://www.w3.org/1999/xlink" x="0px" y="0px" viewBox="0 0 140 140" enable-background="new 0 0 140 140" xml:space="preserve">
<path fill="#C0C0C0" d="M63.3,60.9c2.1,0.4,4.6,0.7,6.7,0.7s4.5-0.4,6.7-0.7c-0.7,2.5-1.1,4.9-1.1,7.7c0,2.8,0.3,5.2,1.1,8.1
	C72.8,82.6,70.7,90,70,98c-0.3-8.4-2.8-15.4-6.7-21.3c0.7-2.8,1.1-5.6,1.1-8.1C64.4,65.8,64,63.4,63.3,60.9z M98,42v52.2
	c-3.5-4.2-11.9-7.7-24.5-10.9c-0.7,0,3.2,0,11.9,0c0-18.9,0-30.1,0-34.6C86.8,49,91.3,46.6,98,42z M42,42c6.6,4.6,11.2,7,12.6,7
	c0,4.2,0,15.8,0,34.7c8.4,0,12.6,0,11.9,0c-12.6,2.8-21,6.6-24.5,10.8V42z"></path>
<g>
	<defs>
		<circle id="SVGID_1_" cx="70" cy="70" r="70"></circle>
	</defs>
	<clipPath id="SVGID_00000161618892340621572140000009140146601766955662_">
		<use xlink:href="#SVGID_1_" overflow="visible"></use>
	</clipPath>
	<path clip-path="url(#SVGID_00000161618892340621572140000009140146601766955662_)" fill="#C0C0C0" d="M70,7c34.8,0,63,28.2,63,63
		h14c0-42.5-34.5-77-77-77V7z M7,70C7,35.2,35.2,7,70,7V-7C27.5-7-7,27.5-7,70H7z M70,133c-34.8,0-63-28.2-63-63H-7
		c0,42.5,34.5,77,77,77V133z M133,70c0,34.8-28.2,63-63,63v14c42.5,0,77-34.5,77-77H133z"></path>
</g>
</svg>