<svg id="Слой_1" data-name="Слой 1" xmlns="http://www.w3.org/2000/svg" viewBox="0 0 1273.47 580"><defs><style>.cls-1{fill:#fff;}</style></defs><path class="cls-1" d="M1036.45,414.83c-3,.05-5.88,0-8.83-.06l-5.78,0-2.58-.05c-10.18.34-14.24,4.61-24.26,10.25v89c13.24,8.28,13.24,8.28,26.84,10.2l2.85,0c2,0,3.91,0,5.86-.05,3,0,5.88,0,8.83.06,13.48,0,21.4-2.69,32.62-10.23V492h-20l-1,13-35,1c0-6.79,0-6.79,0-13.72,0-2.88,0-5.76,0-8.64q0-6.84,0-13.69,0-5.54,0-11.05c0-1.4,0-2.8,0-4.2v-5.92c0-1.68,0-1.68,0-3.39-.14-3.81-.65-7.6-1.12-11.39h37v13h20V425C1059.8,416.8,1051.05,414.54,1036.45,414.83Z"/><path class="cls-1" d="M1002,389c2,.07,4,.08,6.06.06l3.18,0,2.76,0q-9.37-19.92-19.06-39.69l-2.63-5.37Q989.16,337.46,986,331h-2c-12.24,24.26-12.24,24.26-24.12,48.69l-1.24,2.58A17.23,17.23,0,0,0,956,389h12c4.38-8,8.6-16.06,12.5-24.31l1.06-2.23c1.81-3.58,1.81-3.58,2.44-7.46h2c.27.86.54,1.71.81,2.6a95.91,95.91,0,0,0,4.19,9.86c.29.59.57,1.17.86,1.78l1.79,3.69q1.38,2.83,2.74,5.68C998.67,384.15,998.67,384.15,1002,389Z"/><path class="cls-1" d="M926,329.5H872v11h54Z"/><path class="cls-1" d="M883,367h43V356H872v33h11Z"/><path class="cls-1" d="M1155.09,346.16c3.8.18,7.61.29,11.42.39,1.65.05,3.29.12,4.93.2,9.81.78,9.81.78,18.47-3,3.49-3.94,3.49-3.94,5.09-8.76h-54v54h54c-2.85-5.95-2.85-5.95-7-11a29.65,29.65,0,0,0-8.36-.68l-2.4,0c-2.52,0-5,.12-7.55.21l-5.14.1q-6.27.12-12.55.34V367h23V356h-23V346Z"/><path class="cls-1" d="M1159,504h-41V417h-21q-.3,18.62-.47,37.24-.06,8.64-.21,17.29-.15,8.36-.17,16.69c0,2.12-.05,4.25-.1,6.37-.77,11-.77,11,2.77,20.93A28.55,28.55,0,0,0,1106,519c1.14.76,2.26,1.54,3.37,2.33,5,2.28,9.29,2.34,14.69,2.38l3.22,0c2.24,0,4.49,0,6.73,0,3.39,0,6.77.1,10.15.19l6.59,0,3,.1c10.94-.13,14.34-4,25.26-10.12V417h-20Z"/><path class="cls-1" d="M855,437.52l28,1,1,88h20l1-88,28-1v-17H855Z"/><path class="cls-1" d="M1094,378a34.64,34.64,0,0,0-8.14-.8l-2.34-.05c-2.44,0-4.89,0-7.33,0-1.67,0-3.33,0-5-.06-4.07-.05-8.13-.06-12.2-.06l-1-31,7.63.32c2.45.07,4.91.12,7.37.17,1.7.05,3.39.11,5.09.19,9.82.78,9.82.78,18.62-2.65C1100,340,1100,340,1101,335h-54v54h54C1099.07,384.18,1097.72,381.53,1094,378Z"/><path class="cls-1" d="M594,235a23.45,23.45,0,0,0-6.19-9.75l-2.23-2.36c-5.79-4.24-15-3.28-22-3.64l-3.6-.2-7.53-.41L541,218l-7.34-.4-3.43-.19c-6.09-.32-12.14-.49-18.23-.43v4l-1.19-1.94c-2.6-3-5.27-2.91-9.08-3.27l-2.36-.13-2.72-.15-3-.16-3.14-.17-10.28-.56-7.16-.39-18.88-1-30.15-1.64-10.5-.57-6.5-.35-2.91-.16c-6.41-.35-12.79-.87-19.17-1.49l-.72-1.92c-13.62-36.15-13.62-36.15-27.34-72.27l-1-2.51-3.9-10.21Q341,93.07,330,64l-1-2.74Q317.35,30.67,306,0h-1c-5.48,12.85-10.47,25.9-15.54,38.91L287,45.15l-1.24,3.17Q282,58.08,278.08,67.8q-2.54,6.33-5.05,12.66-1.21,3-2.44,6.05c-1.14,2.82-2.26,5.64-3.38,8.46l-1,2.51c-.3.78-.6,1.55-.92,2.35s-.53,1.33-.81,2c-1,5,.95,9.62,2.7,14.21l1.35,3.59,1.49,3.9,1.55,4.11q2.1,5.55,4.22,11.1l4.42,11.67q3.18,8.42,6.37,16.81,5.37,14.16,10.71,28.33c.24.65.49,1.3.74,2l2.93,7.77,7.74,20.55,1.36,3.59q10.47,27.78,21,55.55c-7.41,1.76-14.8,3.43-22.31,4.69l-2.28.39L301,291l1,3-3-2c-8.21-.36-17.1,2.14-25.17,3.58l-7.06,1.25-4.49.79-2.13.38a25.28,25.28,0,0,0-7.15,2,57.91,57.91,0,0,0,2.73,10c.36,1,.71,1.94,1.07,2.95s.78,2.09,1.17,3.16.81,2.2,1.22,3.33l2.56,7c1.29,3.49,2.56,7,3.84,10.47,3.76,10.26,7.55,20.5,11.46,30.7,3.69,9.63,7.23,19.31,10.75,29q2.44,6.74,4.92,13.45c3.73,10.13,7.42,20.25,10.81,30.49,5.56,18.46,5.56,18.46,19.2,31l4.63,2.11c5,2.49,9.49,5.78,14.08,8.94,2.91,2,5.84,3.93,8.77,5.88l1.74,1.17c5.43,3.6,10.92,7.1,16.43,10.58q11.73,7.41,23.25,15.16,11.14,7.46,22.37,14.78l1.86,1.21,9.4,6.15,16.27,10.66,5.32,3.48Q468.44,565.84,490,580c1.31-3.93.45-5.89-.62-9.88-.18-.71-.37-1.41-.56-2.14q-.94-3.56-1.91-7.1l-1.35-5.1-2.94-11q-2.36-8.74-4.68-17.5L473.05,509q-5.83-21.88-11.61-43.78c-.27-1-.53-2-.81-3.07l-4-15.06q-2.62-9.93-5.23-19.84L448,414q-3-11.3-6-22.56-1.32-4.77-2.62-9.56c-.41-1.49-.82-3-1.24-4.46q-.85-3-1.68-6.07c-.31-1.13-.63-2.26-1-3.43-.46-3.22-.28-4.31,1.58-6.91,1.8-1.61,3.66-3.14,5.56-4.62,3.78-2.73,3.78-2.73,6.44-6.38l-1.94-1.19c-2.56-2.25-2.51-3.51-3.06-6.81a38.82,38.82,0,0,0-3-5h2c.21.68.41,1.36.62,2.06,1.83,3.91,4.48,6.78,7.38,9.94a139.17,139.17,0,0,0,13.38-9.94l4.24-3.47,2.19-1.8q5.28-4.32,10.57-8.6l2-1.66q10.27-8.36,20.7-16.54,8.72-6.83,17.26-13.85c3.52-2.88,7.12-5.65,10.72-8.41,2.15-1.68,2.15-1.68,2.9-4.73a28.33,28.33,0,0,0-2-5h2l2,5c10.91-8.08,21.5-16.56,32-25.14,5.62-4.58,11.3-9.06,17-13.52Q590,238.19,594,235Z"/><path class="cls-1" d="M593.73,335.61C589.65,333,589.65,333,585,332v57c8.18.18,8.18.18,13.94-4.06l3.09-2.47,5.6-4.66,2.37-1.93,2.06-1.76c1.94-1.12,1.94-1.12,3.79-.89a21.1,21.1,0,0,1,6.41,3.89l2.39,1.9,2.47,2,4.89,3.88,2.17,1.74c4.37,3.32,5,2.38,11.82,2.38V332c-10.87,4.35-10.87,4.35-12.34,9.71a24.35,24.35,0,0,0,.05,4.09c0,.73,0,1.45,0,2.2,0,2.29,0,4.58.12,6.88,0,1.56,0,3.12,0,4.68,0,3.82.07,7.63.18,11.44l-1.51-1.1q-3.39-2.46-6.8-4.9l-2.38-1.73-2.3-1.65-2.11-1.52c-2-1.35-2-1.35-4.9-1.1a23.61,23.61,0,0,0-4,2.62l-2.3,1.65L605.31,365l-2.41,1.73q-3,2.13-5.9,4.27c0-1,0-1.94.07-2.93.07-3.62.07-7.23,0-10.84q0-2.34.06-4.68C597.7,343.38,597.7,343.38,593.73,335.61Z"/><path class="cls-1" d="M622.75,340.44l2.42-1.88L627,337v-1l-23-1c4.85,5.69,4.85,5.69,10,11A43,43,0,0,0,622.75,340.44Z"/><path class="cls-1" d="M287.78,452.94c-.71-.91-1.42-1.82-2.16-2.75l-4.42-5.73L279,441.62q-3.88-5.07-7.63-10.24l-1.3-1.79L267.42,426c-10.82-14.84-21.83-29.54-32.87-44.21-5.11-6.78-10.14-13.62-15.18-20.46-6.48-8.8-13.05-17.54-19.62-26.27q-7.77-10.32-15.39-20.74Q178.72,306.61,173,299c-18.75-24.93-18.75-24.93-27-37l2-.18A97.83,97.83,0,0,0,161,260l-1-4c.47.52.95,1,1.44,1.56,5.74,3.22,13.55.08,19.56-1.56l-3-6,1.69,2.56a7.84,7.84,0,0,0,5.73,2.69c11.26-.71,22.5-3.21,33.58-5.25-.63-3.64-2.19-6-4.32-9l-2.05-2.92-4.43-6.21c-6.34-8.89-6.34-8.89-8.44-13.05-1.69-3.24-2.93-5.5-5.76-7.82-5-1-9.55-.78-14.62-.24-3.28.33-6.56.47-9.85.62-2.3.11-4.6.25-6.9.4s-4.42.22-6.63.22l-5.7.26-3.6.17-4,.2-4.17.2-11.32.55-7.09.35-24.77,1.21-23,1.12-19.8,1-11.8.58-11.14.54-6,.29Q11.81,219,0,220a149.47,149.47,0,0,0,11.19,10.31l1.74,1.47q6.08,5.1,12.3,10c9.3,7.4,18.48,14.95,27.65,22.51,5.13,4.24,10.28,8.45,15.5,12.59,10.66,8.52,21.2,17.21,31.73,25.89q12.44,10.26,25,20.4Q133.57,330.07,142,337l8.24,6.74,5.58,4.58,2.8,2.3,2.48,2C165,355.83,169,358.91,173,362c-10.2,38.87-20.76,77.64-31.37,116.4l-1.11,4.06q-1.2,4.44-2.5,8.85l-.86,2.95-.76,2.51A10,10,0,0,0,137,503a30.19,30.19,0,0,0,4,4l-6-3c-1.07,3.24-2.1,6.49-3.12,9.75-.31.92-.61,1.84-.92,2.79s-.56,1.78-.84,2.69l-.8,2.48c-.64,4.57,2.77,8,5.3,11.54l1.92,2.7,1.46,2a29.26,29.26,0,0,1-5.56-6.69c-1.29-2.61-1.29-2.61-4.44-3.31q-2.82,10.17-5.61,20.34-.94,3.46-1.91,6.93-1.38,5-2.73,9.94l-.88,3.13-.79,2.91c-.23.85-.47,1.7-.71,2.57-.58,2.35-.58,2.35.63,5.18l1.48-1C134,567,134,567,142.12,561.82c3.68-2.33,7.35-4.7,11-7.07l2.21-1.43,10.77-7q11.82-7.67,23.71-15.22,14.41-9.15,28.71-18.5,10-6.56,20.13-13.09l4.52-2.94q14.37-9.34,28.84-18.51,11-7,22-14.08c-.62-3.54-2-5.64-4.21-8.46Z"/><path class="cls-1" d="M690.47,386.06l1-1.94q1.06-2.13,2.14-4.28c1.9-3.8,3.8-7.6,5.73-11.39.37-.73.74-1.45,1.11-2.2l2.14-4.2c1.83-3.35,1.83-3.35,2.44-7.05h2c.27.86.54,1.71.81,2.6a95.91,95.91,0,0,0,4.19,9.86c.29.59.57,1.17.86,1.78l1.79,3.69q1.38,2.83,2.74,5.68c2.28,5.54,2.28,5.54,5.61,10.39,2,.07,4,.08,6.06.06l3.18,0,2.76,0q-9.37-19.92-19.06-39.69l-2.63-5.37Q710.16,337.46,707,331h-2c-11.94,23.7-11.94,23.7-23.56,47.56l-1.39,2.9a20.17,20.17,0,0,0-3,7.54h12Z"/><path class="cls-1" d="M778,346h37v8l-2.5.69a23.54,23.54,0,0,0-6.94,3.87c-5.75,3.83-12.87,3.34-19.56,3.44,2.39,5.61,6.94,9.78,11.1,14.13q1.51,1.61,3,3.26c6.37,7.3,6.37,7.3,15.26,10.31A74.52,74.52,0,0,0,827,389a179.37,179.37,0,0,0-13.3-14.27c-3.6-3.53-3.6-3.53-4.7-5.73l2.63-.87L815,367l3-.85c3.6-1.31,3.6-1.31,8-6.15V335H767v54h11Z"/><path class="cls-1" d="M843.19,448.35c1.85-11.24,1.85-11.24-1.44-21.8-4.07-3.3-8.71-5.28-13.56-7.18l-2-1c-5.45-.38-10.9-.48-16.36-.57-1.82,0-3.64-.09-5.46-.16-13.83-.55-22.81,1.73-34.18,9.72q-.48,9.18-.72,18.35-.09,3.12-.26,6.23c-1.1,11-1.1,11,2.23,21.12,3.46,3.09,7.39,4.7,11.75,6.27l1.91,1.15c3.29,1.33,6.64,1.09,10.13,1h2.34c2.46,0,4.91,0,7.37-.06l5,0,12.25-.09v27h-33v-13h-21v21c12,8,20.45,10.46,34.75,10.17,2.81-.05,5.61,0,8.43,0,12.54,0,20.87-2.54,30.82-10.22,1.19-1,1.19-1,1.12-2.79,0-.78,0-1.56,0-2.36v-2.67c0-1,0-1.91,0-2.89s0-1.95,0-3c0-3.12,0-6.25,0-9.38,0-2.11,0-4.22,0-6.34q0-7.79,0-15.58c-11.77-8-20.87-10.31-35-10.05l-5,0c-4,0-8,0-12,.08-.5-12.37-.5-12.37-1-25h32v12Z"/><path class="cls-1" d="M585,522c3.89,1.3,7.58,1.15,11.62,1.12l2.4,0c3.79.36,3.79.36,7-1.14.09-1.41.12-2.83.11-4.24V515c0-1,0-2,0-3s0-2,0-3q0-4.8,0-9.6c0-2.17,0-4.33,0-6.49q0-8,0-15.95h35V459H606V434h44V417H585Z"/><path class="cls-1" d="M730.73,456.11q-5-14.21-10.15-28.4c-.34-1-.68-1.91-1-2.9l-1-2.66-.85-2.36c-.59-1.78-.59-1.78-1.73-2.79-1.63-.09-3.27-.11-4.91-.1h-3l-3.15,0h-3.17L694,417q-4.25,11.85-8.5,23.69c-.42,1.18-.85,2.37-1.29,3.59q-10.2,28.46-20.31,57c-.32.9-.63,1.8-1,2.72-.59,1.65-1.17,3.31-1.76,5l-.79,2.21-.72,2c-.58,1.58-1.24,3.12-1.92,4.66-1,2.3-1,2.3.25,5.16h19c5.38-11.19,5.38-11.19,8-23h41l2,9c.71,2.35,1.48,4.69,2.31,7l1.18,3.38c1.24,2.78,1.24,2.78,3.73,3.48,3.33.17,6.63.31,10,.33l3.73,0c3.19.1,3.19.1,5.08-2.23l-.94-2.59Q741.78,487.3,730.73,456.11ZM687.26,475.8l17.41-44,17.81,44Z"/><path class="cls-1" d="M1250.59,416H1204V524h15V495h31.59c13.58,0,22.88-15.4,22.88-39.42S1264.17,416,1250.59,416Zm-3.84,56H1219V439h27.75c4.68,0,12,0,12,16.58C1258.71,472,1251.43,472,1246.75,472Z"/></svg>