<?xml version="1.0" standalone="no"?>
<!DOCTYPE svg PUBLIC "-//W3C//DTD SVG 20010904//EN"
 "http://www.w3.org/TR/2001/REC-SVG-20010904/DTD/svg10.dtd">
<svg version="1.0" xmlns="http://www.w3.org/2000/svg"
 width="512.000000pt" height="512.000000pt" viewBox="0 0 512.000000 512.000000"
 preserveAspectRatio="xMidYMid meet">

<g transform="translate(0.000000,512.000000) scale(0.100000,-0.100000)"
fill="#000000" stroke="none">
<path d="M1504 4936 c-96 -44 -150 -138 -143 -245 l4 -51 -145 0 c-159 0 -204
-12 -263 -68 -67 -63 -82 -126 -67 -275 39 -381 158 -678 355 -886 171 -180
380 -274 645 -288 103 -6 105 -7 160 -47 31 -23 80 -52 109 -66 l52 -24 -6
-51 c-30 -216 -139 -455 -209 -455 -71 0 -165 -61 -203 -133 -24 -43 -24 -170
-1 -213 26 -49 88 -102 137 -119 67 -23 1195 -23 1262 0 49 17 111 70 137 119
23 42 23 170 0 211 -39 73 -134 135 -204 135 -70 0 -182 245 -208 455 l-6 50
52 25 c29 14 78 44 110 68 55 40 62 42 127 42 133 0 307 42 431 105 330 165
548 555 600 1070 16 158 -1 220 -80 287 -56 49 -98 58 -256 58 l-139 0 4 51
c5 81 -16 137 -73 194 -32 32 -66 55 -92 63 -31 9 -285 12 -1040 12 l-999 0
-51 -24z m2071 -161 c29 -28 29 -31 10 -200 -92 -801 -309 -1236 -707 -1420
-167 -77 -298 -97 -435 -66 -391 86 -653 374 -796 876 -52 184 -100 461 -122
707 -7 73 -6 78 18 102 l26 26 991 0 991 0 24 -25z m-2172 -458 c62 -374 189
-711 356 -944 l60 -82 -32 6 c-312 58 -548 286 -662 637 -54 167 -97 456 -74
498 23 44 37 47 185 48 l140 0 27 -163z m2630 152 c42 -19 49 -50 37 -163 -57
-527 -276 -869 -630 -980 -41 -13 -89 -26 -107 -29 l-32 -6 60 82 c167 233
294 570 356 944 l27 163 132 0 c76 0 143 -5 157 -11z m-1473 -1554 c58 0 126
4 153 8 l47 8 0 -34 c0 -54 46 -220 85 -310 20 -45 39 -88 42 -94 4 -10 -65
-13 -327 -13 -262 0 -331 3 -327 13 3 6 22 49 42 94 37 84 85 255 85 303 0 37
7 41 54 32 23 -4 88 -7 146 -7z m615 -620 c16 -15 25 -36 25 -55 0 -19 -9 -40
-25 -55 l-24 -25 -591 0 -591 0 -24 25 c-16 15 -25 36 -25 55 0 19 9 40 25 55
l24 25 591 0 591 0 24 -25z"/>
<path d="M3127 3909 c-9 -6 -35 -45 -56 -87 -22 -42 -64 -115 -95 -161 -31
-46 -56 -92 -56 -103 0 -26 53 -78 80 -78 39 0 61 20 121 112 84 128 132 232
124 269 -11 50 -72 75 -118 48z"/>
<path d="M2705 3415 c-16 -15 -25 -36 -25 -55 0 -19 9 -40 25 -55 15 -16 36
-25 55 -25 19 0 40 9 55 25 16 15 25 36 25 55 0 19 -9 40 -25 55 -15 16 -36
25 -55 25 -19 0 -40 -9 -55 -25z"/>
<path d="M2505 1815 c-23 -22 -25 -32 -25 -120 l0 -95 -655 0 -656 0 -24 -25
c-25 -24 -25 -24 -25 -240 l0 -215 -335 0 -336 0 -24 -25 c-24 -23 -25 -29
-25 -164 l0 -140 -53 -24 c-66 -30 -118 -81 -154 -150 -23 -44 -27 -65 -28
-137 0 -101 23 -159 93 -228 65 -65 120 -87 222 -87 102 0 157 22 222 87 67
67 92 127 93 223 0 66 -5 90 -26 136 -33 70 -87 125 -156 156 l-53 24 0 85 0
84 640 0 640 0 0 -84 0 -85 -53 -24 c-66 -30 -118 -81 -154 -150 -23 -44 -27
-65 -28 -137 0 -101 23 -159 93 -228 65 -65 120 -87 222 -87 102 0 157 22 222
87 67 67 92 127 93 223 0 66 -5 90 -26 136 -33 70 -87 125 -156 156 l-53 24 0
140 c0 135 -1 141 -25 164 l-24 25 -336 0 -335 0 0 160 0 160 1280 0 1280 0 0
-120 0 -120 -335 0 -336 0 -24 -25 c-25 -24 -25 -26 -25 -204 l0 -180 -53 -24
c-66 -30 -118 -81 -154 -150 -23 -44 -27 -65 -28 -137 0 -101 23 -159 93 -228
65 -65 120 -87 222 -87 102 0 157 22 222 87 67 67 92 127 93 223 0 66 -5 90
-26 136 -33 70 -87 125 -156 156 l-53 24 0 125 0 124 640 0 640 0 0 -124 0
-125 -53 -24 c-66 -30 -118 -81 -154 -150 -23 -44 -27 -65 -28 -137 0 -101 23
-159 93 -228 65 -65 120 -87 222 -87 102 0 157 22 222 87 67 67 92 127 93 223
0 66 -5 90 -26 136 -33 70 -87 125 -156 156 l-53 24 0 180 c0 178 0 180 -25
204 l-24 25 -336 0 -335 0 0 175 c0 173 0 176 -25 200 l-24 25 -656 0 -655 0
0 95 c0 88 -2 98 -25 120 -15 16 -36 25 -55 25 -19 0 -40 -9 -55 -25z m-1962
-1189 c103 -43 128 -177 48 -257 -65 -65 -157 -65 -222 0 -124 123 13 325 174
257z m1440 0 c103 -43 128 -177 48 -257 -65 -65 -157 -65 -222 0 -124 123 13
325 174 257z m1280 0 c103 -43 128 -177 48 -257 -65 -65 -157 -65 -222 0 -124
123 13 325 174 257z m1440 0 c103 -43 128 -177 48 -257 -65 -65 -157 -65 -222
0 -124 123 13 325 174 257z"/>
</g>
</svg>
