<?xml version="1.0" standalone="no"?>
<!DOCTYPE svg PUBLIC "-//W3C//DTD SVG 20010904//EN"
 "http://www.w3.org/TR/2001/REC-SVG-20010904/DTD/svg10.dtd">
<svg version="1.0" xmlns="http://www.w3.org/2000/svg"
 width="24.000000pt" height="24.000000pt" viewBox="0 0 24.000000 24.000000"
 preserveAspectRatio="xMidYMid meet">

<g transform="translate(0.000000,24.000000) scale(0.100000,-0.100000)"
fill="#000000" stroke="none">
<path d="M0 122 l0 -123 32 24 c30 24 31 27 29 94 -2 60 -5 71 -32 98 l-29 30
0 -123z m40 -7 c0 -35 -4 -67 -10 -70 -6 -4 -10 22 -10 70 0 48 4 74 10 70 6
-3 10 -35 10 -70z"/>
<path d="M208 217 c-25 -20 -27 -29 -29 -95 -2 -72 -1 -75 29 -99 l32 -24 0
120 c0 67 -1 121 -2 121 -2 0 -15 -10 -30 -23z m12 -98 c0 -51 -4 -78 -10 -74
-18 11 -12 155 7 155 2 0 3 -36 3 -81z"/>
<path d="M90 114 c0 -33 21 -104 30 -104 9 0 30 71 30 104 0 22 -4 26 -30 26
-26 0 -30 -4 -30 -26z m40 -19 c0 -14 -4 -25 -10 -25 -5 0 -10 11 -10 25 0 14
5 25 10 25 6 0 10 -11 10 -25z"/>
</g>
</svg>
